<svg width="40" height="40" viewBox="0 0 40 40" fill="none" xmlns="http://www.w3.org/2000/svg">
<path d="M1 20C1 9.50659 9.50659 1 20 1C30.4934 1 39 9.50659 39 20C39 30.4934 30.4934 39 20 39C9.50659 39 1 30.4934 1 20Z" fill="#262626" stroke="#303030" stroke-width="2"/>
<mask id="mask0_214_36" style="mask-type:luminance" maskUnits="userSpaceOnUse" x="12" y="12" width="16" height="16">
<path fill-rule="evenodd" clip-rule="evenodd" d="M27.0744 15.107C26.884 14.6165 26.6301 14.201 26.2146 13.7856C25.7992 13.3701 25.3837 13.1162 24.8933 12.9258C24.4201 12.7412 23.8719 12.6142 23.0814 12.5796L23.068 12.579C22.2822 12.5449 22.0198 12.5334 20.0001 12.5334C17.969 12.5334 17.7151 12.5392 16.9188 12.5796C16.1225 12.6142 15.5801 12.7412 15.107 12.9258C14.6165 13.1162 14.201 13.3701 13.7856 13.7856C13.3701 14.201 13.1162 14.6165 12.9258 15.107C12.7412 15.5801 12.6142 16.1283 12.5796 16.9188L12.579 16.9322C12.5449 17.718 12.5334 17.9805 12.5334 20.0001C12.5334 22.0312 12.5392 22.2851 12.5796 23.0814C12.6142 23.8777 12.7412 24.4201 12.9258 24.8933C13.1162 25.3837 13.3701 25.7992 13.7856 26.2146C14.201 26.6301 14.6165 26.884 15.107 27.0744C15.5801 27.2591 16.1283 27.386 16.9188 27.4206L16.9322 27.4212C17.718 27.4554 17.9804 27.4668 20.0001 27.4668C22.0312 27.4668 22.2851 27.461 23.0814 27.4206C23.8777 27.386 24.4201 27.2591 24.8933 27.0744C25.3837 26.884 25.7992 26.6301 26.2146 26.2146C26.6301 25.7992 26.884 25.3837 27.0744 24.8933C27.2591 24.4201 27.386 23.8719 27.4206 23.0814L27.4212 23.068C27.4554 22.2822 27.4668 22.0198 27.4668 20.0001C27.4668 17.969 27.461 17.7151 27.4206 16.9188C27.386 16.1225 27.2591 15.5801 27.0744 15.107ZM25.5579 22.7579C25.5263 23.4223 25.4156 23.7862 25.3206 24.0235C25.1994 24.3399 25.0464 24.5719 24.8092 24.8092C24.5719 25.0464 24.3451 25.1941 24.0235 25.3206C23.7809 25.4156 23.4223 25.5263 22.7579 25.5579L22.7236 25.5594H22.7236C22.0283 25.5899 21.7954 25.6001 20.0001 25.6001C18.1756 25.6001 17.9594 25.5948 17.2423 25.5579C16.5779 25.5263 16.2141 25.4156 15.9768 25.3206C15.6604 25.1994 15.4284 25.0464 15.1911 24.8092C14.9538 24.5719 14.8061 24.3451 14.6796 24.0235C14.5847 23.7809 14.4739 23.4223 14.4423 22.7579L14.441 22.7294C14.4104 22.0295 14.4001 21.7952 14.4001 20.0001C14.4001 18.1809 14.4054 17.9594 14.4423 17.2423C14.4739 16.5779 14.5847 16.2141 14.6796 15.9768C14.8009 15.6604 14.9538 15.4284 15.1911 15.1911C15.4284 14.9538 15.6551 14.8061 15.9768 14.6796C16.2193 14.5847 16.5779 14.4739 17.2423 14.4423L17.2708 14.441C17.9707 14.4104 18.2051 14.4001 20.0001 14.4001C21.8193 14.4001 22.0408 14.4054 22.7579 14.4423C23.4223 14.4739 23.7862 14.5847 24.0235 14.6796C24.3399 14.8009 24.5719 14.9538 24.8092 15.1911C25.0464 15.4284 25.1941 15.6551 25.3206 15.9768C25.4156 16.2193 25.5263 16.5779 25.5579 17.2423L25.5592 17.2708C25.5898 17.9707 25.6001 18.2051 25.6001 20.0001C25.6001 21.802 25.5898 22.0364 25.5588 22.7375V22.7376L25.5579 22.7579ZM24.6668 16.2668C24.6668 16.7822 24.2489 17.2001 23.7334 17.2001C23.218 17.2001 22.8001 16.7822 22.8001 16.2668C22.8001 15.7513 23.218 15.3334 23.7334 15.3334C24.2489 15.3334 24.6668 15.7513 24.6668 16.2668ZM20.0001 16.2668C17.9398 16.2668 16.2668 17.9398 16.2668 20.0001C16.2668 22.0605 17.9398 23.7334 20.0001 23.7334C22.0605 23.7334 23.7334 22.0605 23.7334 20.0001C23.7334 17.9398 22.0605 16.2668 20.0001 16.2668ZM18.1334 20.0001C18.1334 21.0328 18.9717 21.8668 20.0001 21.8668C21.0285 21.8668 21.8668 21.0285 21.8668 20.0001C21.8668 18.9674 21.0328 18.1334 20.0001 18.1334C18.9674 18.1334 18.1334 18.9717 18.1334 20.0001Z" fill="white"/>
</mask>
<g mask="url(#mask0_214_36)">
<rect x="7.8667" y="7.8667" width="24.2667" height="24.2667" fill="#737373"/>
</g>
</svg>
