<svg width="40" height="40" viewBox="0 0 40 40" fill="none" xmlns="http://www.w3.org/2000/svg">
<path d="M1 20C1 9.50659 9.50659 1 20 1C30.4934 1 39 9.50659 39 20C39 30.4934 30.4934 39 20 39C9.50659 39 1 30.4934 1 20Z" fill="#262626" stroke="#303030" stroke-width="2"/>
<mask id="mask0_214_282" style="mask-type:luminance" maskUnits="userSpaceOnUse" x="11" y="13" width="18" height="15">
<path fill-rule="evenodd" clip-rule="evenodd" d="M28.4001 15.1234C27.782 15.405 27.1183 15.5951 26.4204 15.6796C27.1319 15.2424 27.6786 14.5499 27.9364 13.725C27.27 14.1294 26.5327 14.4245 25.7477 14.5822C25.1186 13.8957 24.2227 13.4666 23.2307 13.4666C21.3271 13.4666 19.7848 15.0486 19.7848 17.0005C19.7848 17.2772 19.8147 17.5476 19.8735 17.806C17.0089 17.6585 14.4694 16.2515 12.769 14.1132C12.4729 14.6356 12.3027 15.2424 12.3027 15.8902C12.3027 17.1168 12.9114 18.198 13.8356 18.8323C13.2711 18.8135 12.7396 18.6552 12.2749 18.3902C12.2744 18.4048 12.2744 18.4204 12.2744 18.4344C12.2744 20.1472 13.4622 21.5758 15.0392 21.9005C14.7504 21.9807 14.4458 22.0243 14.1312 22.0243C13.9086 22.0243 13.6933 22.0022 13.4832 21.9613C13.9212 23.3646 15.1946 24.3866 16.7023 24.4156C15.5234 25.3633 14.0372 25.9292 12.4225 25.9292C12.1441 25.9292 11.8695 25.9126 11.6001 25.8797C13.1251 26.8812 14.9368 27.4666 16.8834 27.4666C23.2228 27.4666 26.6903 22.0814 26.6903 17.4108C26.6903 17.2579 26.6861 17.1049 26.6798 16.9531C27.3535 16.455 27.9375 15.8331 28.4001 15.1234Z" fill="white"/>
</mask>
<g mask="url(#mask0_214_282)">
<rect x="7.8667" y="7.8667" width="24.2667" height="24.2667" fill="#737373"/>
</g>
</svg>
